<?xml version="1.0" encoding="UTF-8"?>
<svg id="Layer_1" data-name="Layer 1" xmlns="http://www.w3.org/2000/svg" viewBox="0 0 352.53 342.59">
  <defs>
    <style>
      .cls-1, .cls-2, .cls-3, .cls-4, .cls-5, .cls-6, .cls-7, .cls-8, .cls-9, .cls-10, .cls-11, .cls-12, .cls-13, .cls-14, .cls-15, .cls-16, .cls-17, .cls-18, .cls-19, .cls-20, .cls-21, .cls-22, .cls-23, .cls-24, .cls-25, .cls-26, .cls-27, .cls-28, .cls-29, .cls-30, .cls-31, .cls-32, .cls-33, .cls-34, .cls-35, .cls-36, .cls-37, .cls-38, .cls-39, .cls-40, .cls-41, .cls-42, .cls-43, .cls-44 {
        stroke-width: 0px;
      }

      .cls-1, .cls-36 {
        fill: #dbe120;
      }

      .cls-2, .cls-8, .cls-20 {
        fill: #c6d92d;
      }

      .cls-3, .cls-4, .cls-7, .cls-8, .cls-11, .cls-12, .cls-14, .cls-16, .cls-20, .cls-21, .cls-23, .cls-26, .cls-27, .cls-28, .cls-30, .cls-31, .cls-33, .cls-35, .cls-36, .cls-37, .cls-41, .cls-43, .cls-44 {
        isolation: isolate;
      }

      .cls-3, .cls-17, .cls-33, .cls-41 {
        fill: #b3d335;
      }

      .cls-3, .cls-20, .cls-45, .cls-21, .cls-23, .cls-26, .cls-37, .cls-43 {
        opacity: .3;
      }

      .cls-4, .cls-11, .cls-16, .cls-35 {
        opacity: .2;
      }

      .cls-4, .cls-39 {
        fill: #e4e769;
      }

      .cls-5 {
        fill: #9fcc3b;
      }

      .cls-6 {
        fill: #5c8b3d;
      }

      .cls-7, .cls-12, .cls-36, .cls-44 {
        opacity: .8;
      }

      .cls-7, .cls-15, .cls-23 {
        fill: #a8cf38;
      }

      .cls-8, .cls-28, .cls-31 {
        opacity: .7;
      }

      .cls-9, .cls-26 {
        fill: #76c043;
      }

      .cls-10, .cls-12 {
        fill: #cadb2b;
      }

      .cls-11, .cls-14, .cls-19, .cls-28 {
        fill: #cedf66;
      }

      .cls-13, .cls-44 {
        fill: #94c93d;
      }

      .cls-14 {
        opacity: .4;
      }

      .cls-18 {
        fill: #9dcb3b;
      }

      .cls-21, .cls-24 {
        fill: #a1cd3a;
      }

      .cls-22, .cls-35 {
        fill: #51b448;
      }

      .cls-25 {
        fill: #fff;
      }

      .cls-27, .cls-33 {
        opacity: .5;
      }

      .cls-27, .cls-38 {
        fill: #7bbf42;
      }

      .cls-29, .cls-31 {
        fill: #abd037;
      }

      .cls-30 {
        fill: #c8da2c;
      }

      .cls-30, .cls-41 {
        opacity: .6;
      }

      .cls-32 {
        fill: #97ca3d;
      }

      .cls-34 {
        fill: #b1d235;
      }

      .cls-37 {
        fill: #407bff;
      }

      .cls-40 {
        fill: #345628;
      }

      .cls-42 {
        fill: #3f5627;
      }

      .cls-43 {
        fill: #d6df24;
      }
    </style>
  </defs>
  <g id="_404" data-name="404">
    <g>
      <path class="cls-32" d="M76.04,220H15.18v-27.47l60.85-72.34h29.12v73.89h15.09v25.92h-15.09v22.47h-29.12v-22.47ZM76.04,194.09v-37.84l-32.16,37.84h32.16Z"/>
      <path class="cls-32" d="M130.66,181.87c0-22.85,4.11-38.85,12.34-47.98,8.23-9.13,20.76-13.7,37.6-13.7,8.09,0,14.74,1,19.93,2.99,5.19,2,9.43,4.59,12.71,7.79,3.28,3.2,5.86,6.56,7.75,10.09,1.89,3.53,3.4,7.64,4.55,12.34,2.24,8.97,3.36,18.32,3.36,28.05,0,21.81-3.69,37.78-11.07,47.9-7.38,10.12-20.09,15.17-38.14,15.17-10.12,0-18.29-1.61-24.52-4.84-6.23-3.23-11.35-7.95-15.34-14.19-2.9-4.43-5.15-10.48-6.77-18.17-1.61-7.68-2.42-16.17-2.42-25.47ZM163.79,181.95c0,15.31,1.35,25.77,4.06,31.37,2.71,5.6,6.63,8.41,11.77,8.41,3.39,0,6.33-1.19,8.82-3.57,2.49-2.38,4.32-6.14,5.5-11.28,1.17-5.14,1.76-13.15,1.76-24.03,0-15.96-1.35-26.7-4.06-32.19-2.71-5.5-6.77-8.24-12.18-8.24s-9.51,2.8-11.98,8.41c-2.46,5.6-3.69,15.98-3.69,31.12Z"/>
      <path class="cls-32" d="M300.1,220h-60.86v-27.47l60.86-72.34h29.11v73.89h15.09v25.92h-15.09v22.47h-29.11v-22.47ZM300.1,194.09v-37.84l-32.15,37.84h32.15Z"/>
    </g>
  </g>
  <g id="Planets">
    <g>
      <g class="cls-45">
        <path class="cls-19" d="M129.31,77.98c0,1.03-.84,1.87-1.87,1.87s-1.87-.84-1.87-1.87.84-1.87,1.87-1.87c1.03,0,1.87.84,1.87,1.87Z"/>
        <circle class="cls-19" cx="1.32" cy="148.49" r="1.32"/>
        <circle class="cls-19" cx="219.41" cy="340.69" r="1.89"/>
        <circle class="cls-19" cx="264.85" cy="264.36" r="1.32"/>
        <path class="cls-19" d="M352.53,27.98c0,.73-.59,1.32-1.32,1.32s-1.32-.59-1.32-1.32.59-1.32,1.32-1.32c.73,0,1.32.59,1.32,1.32Z"/>
        <path class="cls-19" d="M101.11,1.32c0,.73-.59,1.32-1.32,1.32s-1.32-.59-1.32-1.32.59-1.32,1.32-1.32,1.32.59,1.32,1.32Z"/>
        <circle class="cls-19" cx="206.05" cy="69.3" r="1.32"/>
      </g>
      <g>
        <g>
          <circle class="cls-19" cx="69.59" cy="48.72" r="21.91"/>
          <circle class="cls-28" cx="69.59" cy="48.72" r="21.91"/>
        </g>
        <path class="cls-11" d="M62.04,32.19c-3.07,0-5.99.64-8.64,1.77-3.55,3.89-5.72,9.08-5.72,14.76,0,12.1,9.81,21.9,21.9,21.9,3.08,0,6.02-.63,8.68-1.78h0c3.53-3.9,5.68-9.07,5.68-14.74,0-12.11-9.81-21.91-21.91-21.91Z"/>
        <path class="cls-11" d="M59.86,37.98c0,1.11-.9,2-2,2s-2-.9-2-2,.9-2,2-2,2,.9,2,2Z"/>
        <path class="cls-11" d="M83.42,35.98c0,1.11-.9,2-2,2s-2-.9-2-2,.9-2,2-2c1.11,0,2,.9,2,2Z"/>
        <path class="cls-11" d="M79.41,50.26c0,1.81-1.47,3.28-3.28,3.28s-3.28-1.47-3.28-3.28,1.47-3.28,3.28-3.28,3.28,1.47,3.28,3.28Z"/>
        <path class="cls-11" d="M69,59.61c0,2.42-1.96,4.38-4.38,4.38s-4.38-1.96-4.38-4.38,1.96-4.38,4.38-4.38c2.42,0,4.38,1.96,4.38,4.38Z"/>
      </g>
      <g>
        <g>
          <circle class="cls-24" cx="310.55" cy="308.65" r="19.23"/>
          <circle class="cls-21" cx="310.55" cy="308.65" r="19.23"/>
        </g>
        <path class="cls-14" d="M322.69,293.7c-1.75-.53-3.61-.81-5.54-.81-10.62,0-19.23,8.61-19.23,19.23,0,6.02,2.76,11.38,7.09,14.91,1.75.53,3.61.81,5.54.81,10.62,0,19.23-8.61,19.23-19.23,0-6.02-2.76-11.39-7.09-14.91Z"/>
        <path class="cls-19" d="M292.19,314.31c-20.53,9.66-5.22,17.11,23.71,6.71,26.78-9.63,36.97-21.77,13.05-18.01,1.23,5.11-32.31,18.18-36.76,11.29Z"/>
      </g>
    </g>
  </g>
  <g id="Astronaut">
    <g>
      <path class="cls-16" d="M322.45,120.19c-26.89,18.17-61.7,42.13-71.31,99.81h-2.05c9.35-56.98,42.89-81.57,69.79-99.81h3.57Z"/>
      <g>
        <path class="cls-22" d="M183.38,300.63c-16.97,0-33.81-7.66-41.99-20.19-5.05-7.74-10.92-23.95,6.55-45.58l1.56,1.26c-12.36,15.3-14.65,30.65-6.44,43.23,9.99,15.31,33.6,23.01,53.73,17.53,20.63-5.61,33.15-23.56,34.36-49.23,4.14-87.81,50.78-114.86,84.85-134.6,21.16-12.27,36.45-21.14,33.09-39.84-.47-2.6-1.5-4.39-3.16-5.48-4.35-2.87-12.85-.89-22.69,1.41-19.31,4.5-45.75,10.66-61.5-16.13l1.72-1.01c15.01,25.52,39.58,19.8,59.32,15.2,10.29-2.4,19.18-4.47,24.25-1.13,2.14,1.41,3.46,3.64,4.03,6.8,3.61,20.08-13.01,29.72-34.06,41.92-33.66,19.52-79.77,46.25-83.85,132.97-1.25,26.6-14.31,45.21-35.83,51.06-4.53,1.23-9.25,1.82-13.94,1.82Z"/>
        <path class="cls-35" d="M183.38,300.63c-16.97,0-33.81-7.66-41.99-20.19-5.05-7.74-10.92-23.95,6.55-45.58l1.56,1.26c-12.36,15.3-14.65,30.65-6.44,43.23,9.99,15.31,33.6,23.01,53.73,17.53,20.63-5.61,33.15-23.56,34.36-49.23,4.14-87.81,50.78-114.86,84.85-134.6,21.16-12.27,36.45-21.14,33.09-39.84-.47-2.6-1.5-4.39-3.16-5.48-4.35-2.87-12.85-.89-22.69,1.41-19.31,4.5-45.75,10.66-61.5-16.13l1.72-1.01c15.01,25.52,39.58,19.8,59.32,15.2,10.29-2.4,19.18-4.47,24.25-1.13,2.14,1.41,3.46,3.64,4.03,6.8,3.61,20.08-13.01,29.72-34.06,41.92-33.66,19.52-79.77,46.25-83.85,132.97-1.25,26.6-14.31,45.21-35.83,51.06-4.53,1.23-9.25,1.82-13.94,1.82Z"/>
      </g>
      <g>
        <g>
          <path class="cls-9" d="M241.11,29.31c6.86-.12,13.58,2.13,13.58,2.13,0,0,10.96,18.77,12.3,23.07-.46,4.24-7.61,11.19-7.61,11.19l-18.27-36.39Z"/>
          <path class="cls-26" d="M241.11,29.31c6.86-.12,13.58,2.13,13.58,2.13,0,0,10.96,18.77,12.3,23.07-.46,4.24-7.61,11.19-7.61,11.19l-18.27-36.39Z"/>
        </g>
        <g>
          <g>
            <path class="cls-2" d="M273.7,120.49c-4.14-5.25-8.2-10.59-11.56-16.38-.84-1.45-1.64-2.92-2.39-4.41-.43-.85-.84-1.71-1.24-2.57-.35-.75-1.13-1.86-1.2-2.68-1.2-12.67,3.14-22-1.03-32.17l-16.47,6.44s1.4,18.12,4.6,28.96c1.98,6.73,6.48,12.55,10.8,17.94,1.35,1.69,2.66,3.41,4.01,5.1,1.28,1.6,2.71,3.06,3.99,4.65,1.95,2.41,2.6,4.72,1.11,7.56-.08.15-.16.3-.25.45-.42.74,1.55,1.58,2.78.02,2.04-2.58,1.72-2.42,3.46-4.62,1.06-1.34,2.27-2.78,3.32-4.03,1.02-1.22,1.05-2.99.06-4.25Z"/>
            <path class="cls-8" d="M273.7,120.49c-4.14-5.25-8.2-10.59-11.56-16.38-.84-1.45-1.64-2.92-2.39-4.41-.43-.85-.84-1.71-1.24-2.57-.35-.75-1.13-1.86-1.2-2.68-1.2-12.67,3.14-22-1.03-32.17l-16.47,6.44s1.4,18.12,4.6,28.96c1.98,6.73,6.48,12.55,10.8,17.94,1.35,1.69,2.66,3.41,4.01,5.1,1.28,1.6,2.71,3.06,3.99,4.65,1.95,2.41,2.6,4.72,1.11,7.56-.08.15-.16.3-.25.45-.42.74,1.55,1.58,2.78.02,2.04-2.58,1.72-2.42,3.46-4.62,1.06-1.34,2.27-2.78,3.32-4.03,1.02-1.22,1.05-2.99.06-4.25Z"/>
          </g>
          <path class="cls-20" d="M269.67,115.28c-2.2,2.66-6.69,6.12-8.66,7.52.43.48.86.97,1.28,1.46,4.07-2.66,7.28-6.1,8.5-7.5-.38-.49-.75-.98-1.12-1.48Z"/>
          <path class="cls-20" d="M273.69,120.49c-.04-.05-.08-.09-.12-.15-.69.72-1.18,1.88-1.27,3.17-.07.89.08,1.71.38,2.35.33-.39.64-.77.95-1.13,1.03-1.22,1.04-2.99.05-4.24Z"/>
        </g>
        <g>
          <g>
            <path class="cls-29" d="M237.2,41.31c-1.72,2.51-3.75,4.98-6.38,7.19-1.3,1.11-2.79,2.12-4.42,2.98-.82.42-1.69.78-2.58,1.08l-.67.22-.22.07c-.16.05-.32.09-.48.13-.3.07-.61.11-.87.14-1.08.08-1.87-.07-2.52-.23-1.28-.35-2.13-.81-2.94-1.26-.8-.46-1.49-.93-2.15-1.41-1.3-.99-2.48-1.99-3.58-3.05-2.21-2.11-4.17-4.3-5.99-6.74-.83-1.11-.6-2.68.51-3.51.86-.64,1.99-.65,2.84-.11l.08.05c2.36,1.5,4.74,3.08,7.06,4.49,1.17.69,2.32,1.39,3.45,1.93.55.28,1.1.54,1.59.72.48.19.95.29,1.08.27.05,0-.01-.07-.38-.06-.09,0-.21.02-.34.04-.07.01-.15.03-.22.06-.07.02.03-.02.04-.03l.33-.17c.44-.22.86-.5,1.29-.79.86-.58,1.67-1.31,2.5-2.12,1.65-1.64,3.23-3.67,4.9-5.79l.02-.03c1.71-2.17,4.86-2.54,7.03-.82,2.08,1.64,2.49,4.61,1.02,6.76Z"/>
            <path class="cls-31" d="M237.2,41.31c-1.72,2.51-3.75,4.98-6.38,7.19-1.3,1.11-2.79,2.12-4.42,2.98-.82.42-1.69.78-2.58,1.08l-.67.22-.22.07c-.16.05-.32.09-.48.13-.3.07-.61.11-.87.14-1.08.08-1.87-.07-2.52-.23-1.28-.35-2.13-.81-2.94-1.26-.8-.46-1.49-.93-2.15-1.41-1.3-.99-2.48-1.99-3.58-3.05-2.21-2.11-4.17-4.3-5.99-6.74-.83-1.11-.6-2.68.51-3.51.86-.64,1.99-.65,2.84-.11l.08.05c2.36,1.5,4.74,3.08,7.06,4.49,1.17.69,2.32,1.39,3.45,1.93.55.28,1.1.54,1.59.72.48.19.95.29,1.08.27.05,0-.01-.07-.38-.06-.09,0-.21.02-.34.04-.07.01-.15.03-.22.06-.07.02.03-.02.04-.03l.33-.17c.44-.22.86-.5,1.29-.79.86-.58,1.67-1.31,2.5-2.12,1.65-1.64,3.23-3.67,4.9-5.79l.02-.03c1.71-2.17,4.86-2.54,7.03-.82,2.08,1.64,2.49,4.61,1.02,6.76Z"/>
          </g>
          <g>
            <path class="cls-29" d="M200.64,34.78l1.17,1.97s.89,2.62,2.69,3.1l4.85-1.57-.24-.41s0,0,0,0c-.62-.95-.55-2.77-.34-4.29.22-1.52-.57-1.57-1.15-1.19-.34.22-.57.91-.85,1.66-.24-.33-.49-.65-.78-.93l-1.48-1.48c-.64-.64-1.67-.67-2.34-.07l-1.2,1.07c-.61.54-.75,1.45-.33,2.15Z"/>
            <path class="cls-31" d="M200.64,34.78l1.17,1.97s.89,2.62,2.69,3.1l4.85-1.57-.24-.41s0,0,0,0c-.62-.95-.55-2.77-.34-4.29.22-1.52-.57-1.57-1.15-1.19-.34.22-.57.91-.85,1.66-.24-.33-.49-.65-.78-.93l-1.48-1.48c-.64-.64-1.67-.67-2.34-.07l-1.2,1.07c-.61.54-.75,1.45-.33,2.15Z"/>
          </g>
        </g>
        <g>
          <path class="cls-10" d="M246.03,27.58c-4.65,1.13-11.04,3.78-15.35,6.47-1.53.95-2.29,2.76-1.93,4.53,1.92,9.44,6.31,22.08,11.05,30.13l22.11-9.15c.15-3.9-5.22-16.52-10.68-28.72-.98-2.19-2.86-3.82-5.2-3.26Z"/>
          <path class="cls-12" d="M246.03,27.58c-4.65,1.13-11.04,3.78-15.35,6.47-1.53.95-2.29,2.76-1.93,4.53,1.92,9.44,6.31,22.08,11.05,30.13l22.11-9.15c.15-3.9-5.22-16.52-10.68-28.72-.98-2.19-2.86-3.82-5.2-3.26Z"/>
        </g>
        <path class="cls-37" d="M254.65,38.57l-4.39-1.47c.98,2.57,4.53,5.82,7.03,7.73-.82-2.01-1.71-4.1-2.64-6.26Z"/>
        <g>
          <path class="cls-13" d="M244.57,17.68c-1.83-3.48-5.77-5.23-10.52-4.84-4,.33-7.54,4.42-7.12,6.62.42,2.21,3.79,3.14,4.39,3.91l-2.77,2.01c-1.38,1-1.65,2.95-.6,4.29,1.17,1.48,2.7,3.03,3.6,4.12,7.66-.2,13.33-3.12,15.37-5.94-.73-3.58-.54-6.71-2.36-10.18Z"/>
          <path class="cls-44" d="M244.57,17.68c-1.83-3.48-5.77-5.23-10.52-4.84-4,.33-7.54,4.42-7.12,6.62.42,2.21,3.79,3.14,4.39,3.91l-2.77,2.01c-1.38,1-1.65,2.95-.6,4.29,1.17,1.48,2.7,3.03,3.6,4.12,7.66-.2,13.33-3.12,15.37-5.94-.73-3.58-.54-6.71-2.36-10.18Z"/>
        </g>
        <path class="cls-6" d="M240.82,19.84c1.52,3.9-.4,8.29-4.3,9.81-3.9,1.52-8.29-.4-9.81-4.3-1.52-3.89.4-8.29,4.3-9.81,3.89-1.52,8.29.4,9.81,4.3Z"/>
        <g>
          <g>
            <path class="cls-15" d="M305.74,109.96c-.11-3.29-.25-2.96-.35-5.76-.06-1.7-.07-3.59-.08-5.22-.01-1.6-1.14-2.96-2.7-3.28-1.33-.27-2.65-.52-3.98-.81-1.73-.37-3.43-.76-5.13-1.26-1.31-.38-2.62-.8-3.9-1.27-1.38-.5-2.74-1.04-4.09-1.62-1.58-.68-3.13-1.4-4.68-2.14-1.73-.83-3.44-1.68-5.14-2.55-6.58-10.9-6.72-18.07-13.79-26.5l-15.16,6.86s11.14,19.76,18.73,28.15c4.37,4.82,11.22,7,17.33,8.57,4.41,1.14,8.88,2.01,13.35,2.83,1.74.32,3.63.44,5.13,1.48,1.18.82,1.79,2.1,2.14,3.45.07.28.13.56.18.84.16.84,2.2.21,2.14-1.78Z"/>
            <path class="cls-7" d="M305.74,109.96c-.11-3.29-.25-2.96-.35-5.76-.06-1.7-.07-3.59-.08-5.22-.01-1.6-1.14-2.96-2.7-3.28-1.33-.27-2.65-.52-3.98-.81-1.73-.37-3.43-.76-5.13-1.26-1.31-.38-2.62-.8-3.9-1.27-1.38-.5-2.74-1.04-4.09-1.62-1.58-.68-3.13-1.4-4.68-2.14-1.73-.83-3.44-1.68-5.14-2.55-6.58-10.9-6.72-18.07-13.79-26.5l-15.16,6.86s11.14,19.76,18.73,28.15c4.37,4.82,11.22,7,17.33,8.57,4.41,1.14,8.88,2.01,13.35,2.83,1.74.32,3.63.44,5.13,1.48,1.18.82,1.79,2.1,2.14,3.45.07.28.13.56.18.84.16.84,2.2.21,2.14-1.78Z"/>
          </g>
          <path class="cls-23" d="M298.06,94.76c-.6-.13-1.2-.26-1.81-.41.05,3.45-1.57,9.42-2.17,11.22.63.12,1.27.24,1.9.36,1.75-4.74,2.03-9.77,2.07-11.18Z"/>
          <path class="cls-23" d="M305.32,98.97c-.01-1.6-1.13-2.96-2.69-3.28-.31-.06-.64-.13-.95-.19.07.94.65,2.03,1.63,2.9.64.58,1.37.96,2.03,1.14,0-.2-.01-.39-.01-.57Z"/>
        </g>
        <path class="cls-25" d="M239.4,19.9c.4,1.52-1.29,3.11-2.65,1.8-1.1-1.06-2.76-2.85-4.12-3.69-1.39-.87.46-2.39,2.65-1.8,2.04.55,3.71,2.18,4.12,3.69Z"/>
        <g>
          <path class="cls-38" d="M239.52,68.22c-.7.26.58,1.46.58,1.46,0,0,13.97-4.79,22.49-9.72.07-1.03-.68-1.58-.68-1.58,0,0-10.37,5.4-22.4,9.84Z"/>
          <path class="cls-27" d="M239.52,68.22c-.7.26.58,1.46.58,1.46,0,0,13.97-4.79,22.49-9.72.07-1.03-.68-1.58-.68-1.58,0,0-10.37,5.4-22.4,9.84Z"/>
        </g>
        <g>
          <g>
            <path class="cls-1" d="M249.82,26.92c2.76,1.39,5.35,2.87,7.95,4.5,1.29.81,2.58,1.65,3.84,2.55,1.28.88,2.54,1.81,3.8,2.86l.47.39.59.53c.42.37.73.71,1.04,1.05.32.35.59.69.85,1.03.27.34.53.68.77,1.01.99,1.33,1.8,2.68,2.59,4.02,1.54,2.72,2.87,5.43,3.97,8.35.49,1.3-.17,2.75-1.47,3.25-.98.37-2.04.09-2.72-.63l-.05-.05c-2.01-2.13-3.94-4.37-5.88-6.46-1.9-2.08-3.91-4.21-5.54-5.14-2.27-1.42-4.8-2.82-7.31-4.21l-7.56-4.2h-.02c-2.42-1.35-3.29-4.39-1.95-6.81,1.31-2.36,4.24-3.24,6.63-2.04Z"/>
            <path class="cls-36" d="M249.82,26.92c2.76,1.39,5.35,2.87,7.95,4.5,1.29.81,2.58,1.65,3.84,2.55,1.28.88,2.54,1.81,3.8,2.86l.47.39.59.53c.42.37.73.71,1.04,1.05.32.35.59.69.85,1.03.27.34.53.68.77,1.01.99,1.33,1.8,2.68,2.59,4.02,1.54,2.72,2.87,5.43,3.97,8.35.49,1.3-.17,2.75-1.47,3.25-.98.37-2.04.09-2.72-.63l-.05-.05c-2.01-2.13-3.94-4.37-5.88-6.46-1.9-2.08-3.91-4.21-5.54-5.14-2.27-1.42-4.8-2.82-7.31-4.21l-7.56-4.2h-.02c-2.42-1.35-3.29-4.39-1.95-6.81,1.31-2.36,4.24-3.24,6.63-2.04Z"/>
          </g>
          <g>
            <path class="cls-1" d="M278.09,58.1l-.85-2.12s-.47-2.72-2.17-3.48l-5.04.79.18.44s0,0,0,0c.47,1.03.11,2.83-.34,4.29-.45,1.47.32,1.64.95,1.36.37-.16.71-.81,1.1-1.5.18.36.39.72.63,1.04l1.23,1.69c.53.73,1.54.92,2.3.43l1.35-.87c.69-.44.97-1.31.67-2.07Z"/>
            <path class="cls-36" d="M278.09,58.1l-.85-2.12s-.47-2.72-2.17-3.48l-5.04.79.18.44s0,0,0,0c.47,1.03.11,2.83-.34,4.29-.45,1.47.32,1.64.95,1.36.37-.16.71-.81,1.1-1.5.18.36.39.72.63,1.04l1.23,1.69c.53.73,1.54.92,2.3.43l1.35-.87c.69-.44.97-1.31.67-2.07Z"/>
          </g>
        </g>
        <g>
          <g>
            <path class="cls-3" d="M245.59,38.42l-1.22.1-7.48,18.08c.44.03.84,0,1.22-.1,0,0,9.76-3.64,12.71-4.97-1.99-4.12-5.23-13.11-5.23-13.11Z"/>
            <path class="cls-17" d="M231.92,43.16c.42,3.26,2.86,10.18,4.96,13.44,3.65-1.26,9.76-3.64,12.71-4.97-1.99-4.12-4.08-9.79-5.23-13.11-3.15.21-10.01,2.79-12.45,4.64Z"/>
          </g>
          <path class="cls-3" d="M239.36,47.07c-.41,1.36-1.85,2.14-3.21,1.73s-2.14-1.85-1.73-3.21c.41-1.36,1.85-2.14,3.21-1.73,1.36.41,2.14,1.85,1.73,3.21Z"/>
          <path class="cls-41" d="M241.27,43.63c-.13.45-.61.7-1.05.57-.45-.13-.7-.61-.57-1.05.13-.45.61-.7,1.05-.57.45.13.7.6.57,1.05Z"/>
          <path class="cls-41" d="M243.5,42.76c-.13.45-.61.7-1.05.57-.45-.13-.7-.61-.57-1.05s.61-.7,1.05-.57c.45.13.7.61.57,1.05Z"/>
          <polygon class="cls-33" points="246.65 50.55 237.4 54.2 236.84 52.38 246.09 48.73 246.65 50.55"/>
        </g>
      </g>
    </g>
  </g>
  <g id="Rocket">
    <g>
      <path class="cls-16" d="M195.61,189.53c-.2,7.54-.76,13.33-1.68,17.35-1.18,5.14-3.01,8.9-5.5,11.28-2.48,2.38-5.42,3.57-8.81,3.57-5.14,0-9.07-2.8-11.77-8.41-.44-.91-.84-1.95-1.21-3.11-5.71,4.91-11.03,10.27-15.92,16.03l-5.31,6.26c2.87,2.91,6.13,5.3,9.77,7.19,6.23,3.22,14.4,4.84,24.52,4.84,1.78,0,3.5-.05,5.17-.15,6.12-9.06,11.19-18.8,15.1-29.02l14.85-38.72-19.21,12.89Z"/>
      <g>
        <path class="cls-40" d="M61.74,242.32c5.6,5.6,17.5,17.5,17.5,17.5l49.01-46.17c-16.87-6.41-49.74,11.89-66.51,28.66Z"/>
        <path class="cls-42" d="M122.78,303.35c-5.6-5.6-17.5-17.5-17.5-17.5l46.17-49.01c6.41,16.87-11.89,49.74-28.67,66.51Z"/>
        <g>
          <path class="cls-34" d="M189.76,193.06l19.09-36.81-36.81,19.09c-11.83,6.13-22.74,13.88-32.44,23.01l-62.75,59.07,30.83,30.83,59.07-62.75c9.13-9.7,16.88-20.62,23.01-32.44Z"/>
          <path class="cls-30" d="M189.76,193.06l19.09-36.81-36.81,19.09c-11.83,6.13-22.74,13.88-32.44,23.01l-62.75,59.07,30.83,30.83,59.07-62.75c9.13-9.7,16.88-20.62,23.01-32.44Z"/>
        </g>
        <circle class="cls-25" cx="150.55" cy="214.54" r="12.9"/>
        <circle class="cls-5" cx="150.55" cy="214.54" r="8.29"/>
        <polygon class="cls-43" points="118.1 277.18 87.92 247 112.63 223.73 141.37 252.47 118.1 277.18"/>
        <g>
          <path class="cls-39" d="M68.58,269.98c-22.6,1.84-30.09,16.31-32.65,35.54-1.3,9.81-1.88,19.73-10.12,25.48-2.29,1.59-1.15,5.15,1.64,5.06,30.34-.95,44.49-15.8,46.27-22.02-.61,3.93-1.5,7.04-2.49,9.48-1.02,2.51,1.74,4.83,4.03,3.39,8.52-5.34,19.2-15.15,19.91-31.08-6.3-8.85-26.58-25.84-26.58-25.84Z"/>
          <path class="cls-4" d="M68.58,269.98c-22.6,1.84-30.09,16.31-32.65,35.54-1.3,9.81-1.88,19.73-10.12,25.48-2.29,1.59-1.15,5.15,1.64,5.06,30.34-.95,44.49-15.8,46.27-22.02-.61,3.93-1.5,7.04-2.49,9.48-1.02,2.51,1.74,4.83,4.03,3.39,8.52-5.34,19.2-15.15,19.91-31.08-6.3-8.85-26.58-25.84-26.58-25.84Z"/>
        </g>
        <polygon class="cls-18" points="98.63 302.66 62.44 266.46 81.72 262.29 102.8 283.38 98.63 302.66"/>
      </g>
    </g>
  </g>
</svg>